<svg width="86" height="100" viewBox="0 0 86 100" fill="none" xmlns="http://www.w3.org/2000/svg">
<path d="M64.649 17.1522L64.5954 17.1253L51.839 9.75097L51.762 9.714C45.8021 6.68896 37.8511 7.59983 29.2977 13.1525C12.1173 24.3115 -0.973772 49.9974 0.0569165 70.524C0.568914 80.752 4.49758 87.7668 10.4307 90.8523L10.4809 90.8792L23.2407 98.2569L23.301 98.2905C29.2609 101.316 37.2186 100.418 45.7787 94.8588C62.959 83.6998 76.0501 58.0138 75.0194 37.4872C74.5141 27.2525 70.5855 20.2378 64.649 17.1522Z" fill="#37474F"/>
<path d="M22.8024 98.0183L10.4977 90.8725L10.4374 90.8355C4.50429 87.7432 0.578971 80.7285 0.0636265 70.5139C-0.394829 61.3581 1.95768 51.1839 6.22099 41.7357L6.30465 41.5273L18.9808 49.1101C14.7108 58.5583 12.365 68.7325 12.8234 77.8883C13.3086 87.9012 17.08 94.8319 22.8024 98.0183Z" fill="#263238"/>
<path d="M45.7854 94.8521C62.9658 83.693 76.0568 58.0071 75.0261 37.4805C73.9955 16.9539 59.2312 9.36442 42.0508 20.5235C24.8704 31.6825 11.776 57.3685 12.8067 77.8917C13.8374 98.4149 28.605 106.011 45.7854 94.8521Z" fill="#455A64"/>
<path d="M60.3355 15.559L38.8014 60.1179L34.1667 55.0761C32.7847 53.631 30.8936 52.7878 28.8995 52.7278C26.9054 52.6677 24.9674 53.3956 23.5017 54.7551C22.036 56.1145 21.1597 57.9971 21.0608 59.9985C20.962 61.9998 21.6485 63.9603 22.973 65.4588L35.184 78.7454C36.5267 80.2106 38.3876 81.089 40.3676 81.1923C40.5081 81.1923 40.6486 81.1923 40.7892 81.1923C41.1587 81.192 41.5278 81.165 41.8935 81.1117C43.1227 80.9319 44.2893 80.4526 45.2915 79.7155C46.2937 78.9784 47.1009 78.006 47.6426 76.8833L72.339 25.7938C69.8058 20.1201 65.5893 16.6044 60.3355 15.559Z" fill="#37474F"/>
<path d="M77.8237 0.884241C77.6899 0.806934 77.5493 0.732991 77.4088 0.665768C75.8305 -0.102418 74.0132 -0.210389 72.3557 0.365545C70.6982 0.94148 69.3359 2.15428 68.5676 3.73786L41.1673 60.4271L39.6079 58.7465C39.1578 58.2526 38.634 57.8319 38.0552 57.4995C37.2387 57.029 33.7651 55.0089 33.2029 54.6829C31.8326 53.8866 30.2235 53.6103 28.6676 53.9041C27.1118 54.1979 25.7124 55.0423 24.7235 56.284C23.7347 57.5257 23.2219 59.0825 23.2783 60.6715C23.3347 62.2606 23.9566 63.7767 25.031 64.9445L37.242 78.2278C37.6998 78.7268 38.2315 79.1519 38.8182 79.4882C39.6146 79.942 43.0748 81.9587 43.6437 82.2881C44.4305 82.7457 45.3029 83.0356 46.2063 83.1395C47.1097 83.2434 48.0247 83.1592 48.8942 82.892C49.7637 82.6249 50.569 82.1806 51.26 81.5868C51.9509 80.9931 52.5125 80.2627 52.9098 79.4412L85.3263 12.376C86.0551 10.8645 86.188 9.13211 85.6983 7.52629C85.2087 5.92047 84.1326 4.55998 82.686 3.71769L77.8237 0.884241Z" fill="#F69707"/>
<path opacity="0.15" d="M77.8237 0.884241C77.6899 0.806934 77.5493 0.732991 77.4088 0.665768C75.8305 -0.102418 74.0132 -0.210389 72.3557 0.365545C70.6982 0.94148 69.3359 2.15428 68.5676 3.73786L41.1673 60.4271L39.6079 58.7465C39.1578 58.2526 38.634 57.8319 38.0552 57.4995C37.2387 57.029 33.7651 55.0089 33.2029 54.6829C31.8326 53.8866 30.2235 53.6103 28.6676 53.9041C27.1118 54.1979 25.7124 55.0423 24.7235 56.284C23.7347 57.5257 23.2219 59.0825 23.2783 60.6715C23.3347 62.2606 23.9566 63.7767 25.031 64.9445L37.242 78.2278C37.6998 78.7268 38.2315 79.1519 38.8182 79.4882C39.6146 79.942 43.0748 81.9587 43.6437 82.2881C44.4305 82.7457 45.3029 83.0356 46.2063 83.1395C47.1097 83.2434 48.0247 83.1592 48.8942 82.892C49.7637 82.6249 50.569 82.1806 51.26 81.5868C51.9509 80.9931 52.5125 80.2627 52.9098 79.4412L85.3263 12.376C86.0551 10.8645 86.188 9.13211 85.6983 7.52629C85.2087 5.92047 84.1326 4.55998 82.686 3.71769L77.8237 0.884241Z" fill="black"/>
<path opacity="0.15" d="M43.6269 82.2746C43.0648 81.9385 39.6113 79.9218 38.8048 79.4748C38.2182 79.1382 37.6866 78.7131 37.2286 78.2143L25.0177 64.931C24.4792 64.3409 24.0518 63.6576 23.7561 62.9144L28.6117 65.7276C28.9061 66.4732 29.3362 67.1571 29.88 67.7443L42.0876 81.0276C42.5368 81.5172 43.0555 81.9374 43.6269 82.2746Z" fill="black"/>
<path opacity="0.15" d="M74.9592 4.51094C74.3213 5.08592 73.8007 5.77999 73.4266 6.55452L45.2433 64.8638L41.1674 60.4271L68.5676 3.73787C68.941 2.96197 69.4629 2.26755 70.1036 1.69429L74.9592 4.51094Z" fill="black"/>
<path d="M82.2677 3.4824C80.6891 2.71604 78.8726 2.60904 77.2156 3.18479C75.5586 3.76055 74.1962 4.97218 73.4266 6.55449L45.2432 64.8638L39.6113 58.7331C38.406 57.5033 36.7716 56.793 35.054 56.7526C33.3364 56.7121 31.6706 57.3447 30.4093 58.5164C29.148 59.688 28.3902 61.3067 28.2964 63.0298C28.2026 64.7528 28.7801 66.4449 29.9067 67.7477L42.1144 81.0344C42.8452 81.8284 43.7579 82.4314 44.7733 82.7909C45.7887 83.1503 46.8761 83.2555 47.9411 83.0972C49.0061 82.9389 50.0166 82.5219 50.8848 81.8824C51.753 81.243 52.4527 80.4004 52.9232 79.4277L85.3397 12.3626C86.1036 10.7756 86.2091 8.94906 85.6331 7.28403C85.0571 5.619 83.8467 4.25168 82.2677 3.4824Z" fill="#F69707"/>
</svg>
